<svg xmlns="http://www.w3.org/2000/svg" width="148" height="35" viewBox="0 0 148 33"><g fill="#404040"><path d="M19.125 31.247c-1.437.609-2.887.914-4.351.914-2.31 0-4.386-.403-6.23-1.212-1.844-.807-3.399-1.918-4.667-3.335-1.267-1.415-2.238-3.08-2.915-4.991-.674-1.912-1.012-3.973-1.012-6.182 0-2.265.337-4.368 1.013-6.308.677-1.941 1.648-3.633 2.915-5.077 1.267-1.444 2.823-2.576 4.667-3.398 1.844-.822 3.92-1.232 6.23-1.232 1.549 0 3.048.234 4.498.701 1.45.467 2.759 1.155 3.928 2.061 1.168.907 2.132 2.025 2.893 3.356.761 1.332 1.226 2.862 1.394 4.588h-6.334c-.395-1.7-1.155-2.974-2.281-3.823-1.127-.85-2.492-1.275-4.097-1.275-1.492 0-2.759.292-3.801.871-1.043.58-1.889 1.358-2.536 2.335-.648.978-1.119 2.089-1.415 3.335-.296 1.247-.443 2.536-.443 3.866 0 1.274.147 2.514.443 3.717.296 1.205.767 2.289 1.415 3.251.647.964 1.493 1.735 2.535 2.315 1.042.581 2.309.871 3.801.871 2.196 0 3.892-.559 5.089-1.679 1.197-1.118 1.894-2.74 2.091-4.864h-6.673v-4.971h12.67v16.4h-4.223l-.675-3.442c-1.183 1.53-2.493 2.6-3.929 3.208zM54.406 1.147v5.607h-15.923v6.5h14.614v5.183h-14.614v7.435h16.261v5.608h-22.891v-30.333h22.553zM64.837 1.147v24.726h14.698v5.608h-21.328v-30.334h6.63z"/></g><g fill="#404040"><path d="M97.107 8.832c-.366.156-.736.233-1.11.233-.591 0-1.12-.103-1.592-.309-.47-.206-.867-.49-1.19-.851-.324-.362-.572-.787-.744-1.275-.174-.488-.259-1.015-.259-1.579 0-.579.085-1.116.259-1.611.172-.495.42-.927.744-1.297.323-.369.721-.658 1.19-.867.472-.209 1.001-.314 1.592-.314.396 0 .778.059 1.149.178.369.12.703.295 1.002.527.297.231.545.517.738.856.195.341.312.731.355 1.172h-1.617c-.101-.434-.295-.759-.583-.977-.286-.217-.636-.325-1.045-.325-.381 0-.705.074-.972.222-.266.148-.48.347-.646.598-.166.249-.285.534-.361.851-.076.319-.113.648-.113.987 0 .326.037.642.113.949.076.308.195.584.361.829.166.247.381.444.646.592.267.148.591.222.972.222.56 0 .993-.142 1.299-.428.307-.286.483-.699.534-1.243h-1.704v-1.266h3.235v4.186h-1.079l-.171-.877c-.301.389-.635.662-1.003.817zM101.885 1.147v7.744h-1.532v-7.744h1.532zM102.865 4.873c.137-.365.332-.676.584-.933.25-.257.553-.455.904-.597.353-.141.748-.211 1.188-.211.438 0 .834.07 1.191.211.354.142.658.34.91.597.252.256.445.567.582.933.137.366.205.772.205 1.221 0 .448-.068.854-.205 1.214-.137.362-.33.67-.582.927-.252.257-.556.454-.91.591-.357.137-.754.207-1.191.207-.439 0-.835-.069-1.188-.207-.352-.137-.654-.333-.904-.591-.252-.257-.447-.565-.584-.927-.137-.361-.204-.766-.204-1.214 0-.449.068-.855.204-1.221zm1.392 1.877c.044.213.116.405.222.575.104.17.241.306.414.407.174.101.389.152.648.152.258 0 .476-.051.651-.152.176-.102.316-.237.421-.407.104-.17.178-.361.221-.575.043-.213.064-.432.064-.656 0-.226-.021-.445-.064-.663s-.117-.408-.221-.575c-.104-.166-.245-.301-.421-.407-.176-.104-.394-.156-.651-.156-.26 0-.475.052-.648.156-.173.106-.311.241-.414.407-.105.167-.178.357-.222.575-.043.217-.063.437-.063.663-.001.224.02.443.063.656zM110.479 1.147v2.82h.021c.188-.289.44-.5.76-.634.32-.135.652-.201.998-.201.281 0 .557.057.831.173.272.116.519.292.737.531.221.239.398.544.535.917.136.373.205.815.205 1.329s-.069.956-.205 1.329c-.137.372-.314.678-.535.917-.219.239-.465.417-.737.532-.274.115-.55.173-.831.173-.41 0-.775-.064-1.1-.196-.323-.13-.568-.35-.733-.662h-.021v.716h-1.457v-7.744h1.532zm2.48 4.263c-.051-.217-.129-.409-.238-.574-.107-.167-.241-.299-.403-.396-.161-.098-.356-.146-.588-.146-.224 0-.417.048-.583.146-.164.098-.301.229-.409.396-.108.166-.187.357-.237.574-.05.217-.075.444-.075.684 0 .231.025.455.075.672.051.217.129.409.237.575.108.166.245.298.409.396.166.098.359.147.583.147.231 0 .427-.049.588-.147.162-.097.296-.229.403-.396.109-.167.188-.358.238-.575.051-.217.076-.44.076-.672 0-.24-.025-.467-.076-.684zM115.482 4.109c.158-.239.359-.43.604-.575.244-.145.52-.248.826-.31.305-.061.611-.091.92-.091.281 0 .565.02.854.059.286.04.55.118.787.233.236.116.431.276.582.482.15.207.227.479.227.819v2.917c0 .254.014.496.043.727.029.232.078.406.15.521h-1.553l-.069-.265-.038-.276c-.244.253-.532.431-.863.532-.33.101-.668.151-1.014.151-.266 0-.514-.033-.744-.098-.229-.065-.43-.166-.604-.304-.172-.137-.307-.311-.404-.521-.097-.209-.145-.459-.145-.748 0-.318.055-.581.166-.787.111-.207.256-.37.432-.493.176-.124.377-.216.604-.276.227-.062.455-.11.686-.146.23-.037.456-.066.679-.088.224-.021.421-.054.593-.098.173-.043.309-.106.41-.189.102-.083.146-.204.141-.363 0-.167-.027-.298-.081-.396s-.126-.174-.216-.228c-.09-.055-.194-.091-.312-.108-.119-.019-.246-.027-.383-.027-.303 0-.539.064-.713.194-.172.131-.272.348-.301.651h-1.532c.02-.362.11-.661.268-.899zm3.025 2.174l-.312.083-.351.054-.366.055-.339.086c-.113.037-.209.086-.292.147-.083.062-.149.14-.2.233-.049.094-.074.214-.074.358 0 .137.025.253.074.346.051.095.119.168.205.223.086.054.188.092.303.114.115.021.232.034.355.034.301 0 .535-.051.701-.153.165-.102.287-.222.365-.363.08-.141.129-.284.146-.428l.027-.348v-.576c-.063.058-.145.103-.242.135zM122.998 1.147v7.744h-1.531v-7.744h1.531zM98.305 12.355v1.433h-4.066v1.659h3.732v1.323h-3.732v1.897h4.152v1.434h-5.844v-7.746h5.758zM99.133 14.493h1.748l.981 1.465.972-1.465h1.691l-1.832 2.625 2.06 2.983h-1.747l-1.164-1.77-1.165 1.77h-1.715l2.007-2.951-1.836-2.657zM106.748 14.493v.716h.021c.187-.304.424-.525.711-.662s.605-.206.949-.206c.438 0 .816.083 1.133.25s.578.387.787.661c.209.276.363.595.463.961.102.365.152.747.152 1.144 0 .376-.051.737-.152 1.085-.1.347-.252.654-.457.922s-.461.48-.768.641c-.305.158-.662.238-1.072.238-.345 0-.663-.071-.954-.212-.291-.142-.53-.349-.717-.624h-.022v2.658h-1.531v-7.572h1.457zm1.989 4.446c.169-.102.306-.232.409-.395.105-.163.179-.354.222-.57s.065-.437.065-.661c0-.224-.024-.446-.07-.662-.047-.217-.125-.41-.232-.581s-.246-.307-.415-.412c-.169-.106-.376-.157-.62-.157-.252 0-.463.051-.631.157-.169.104-.306.24-.41.406-.104.167-.178.357-.221.575-.043.217-.064.441-.064.673 0 .225.023.444.07.661s.121.407.226.57c.104.162.243.293.415.395s.381.152.625.152c.251.002.462-.049.631-.151zM113.477 18.756c.229.225.561.336.992.336.309 0 .574-.078.797-.232.225-.156.361-.32.41-.494h1.348c-.215.674-.545 1.152-.991 1.443-.446.289-.985.434-1.618.434-.438 0-.834-.071-1.186-.212-.353-.142-.65-.342-.896-.603-.245-.26-.433-.57-.565-.932-.134-.362-.2-.76-.2-1.193 0-.419.069-.81.206-1.172.135-.362.33-.675.582-.938.25-.264.551-.473.899-.624.35-.151.735-.228 1.159-.228.475 0 .889.092 1.24.277.353.183.643.432.869.742.226.311.389.666.49 1.062.1.398.135.814.107 1.249h-4.022c.023.499.148.86.379 1.085zm1.73-2.951c-.184-.202-.462-.303-.836-.303-.244 0-.447.042-.609.125s-.291.187-.389.309c-.096.123-.164.253-.204.391l-.07.368h2.491c-.071-.391-.199-.687-.383-.89zM119.224 14.493v1.041h.022c.07-.173.168-.333.29-.482.122-.148.263-.275.422-.38.157-.105.326-.187.506-.243.181-.059.367-.088.56-.088.102 0 .213.019.336.055v1.432l-.259-.038-.292-.018c-.279 0-.517.048-.711.142-.194.094-.352.223-.47.385s-.203.352-.253.568c-.051.217-.075.453-.075.707v2.527h-1.532v-5.609h1.456zM122.179 13.625v-1.269h1.531v1.269h-1.531zm1.531.868v5.609h-1.531v-5.609h1.531zM126.297 18.756c.23.225.562.336.992.336.309 0 .575-.078.799-.232.223-.156.359-.32.41-.494h1.348c-.216.674-.546 1.152-.992 1.443-.447.289-.984.434-1.617.434-.439 0-.835-.071-1.188-.212-.352-.142-.65-.342-.894-.603-.245-.26-.435-.57-.567-.932-.133-.362-.199-.76-.199-1.193 0-.419.068-.81.205-1.172s.331-.675.583-.938c.251-.264.551-.473.899-.624s.734-.228 1.16-.228c.475 0 .887.092 1.24.277.352.183.641.432.867.742.227.311.389.666.49 1.062.102.398.137.814.108 1.249h-4.022c.023.499.147.86.378 1.085zm1.731-2.951c-.184-.202-.462-.303-.835-.303-.245 0-.448.042-.61.125-.161.083-.29.187-.388.309-.098.123-.166.253-.205.391-.04.138-.062.26-.07.368h2.492c-.073-.391-.201-.687-.384-.89zM132.045 14.493v.781h.033c.193-.324.445-.562.754-.71.309-.148.626-.223.949-.223.41 0 .745.056 1.008.168.264.112.471.268.62.467.151.199.258.44.317.726.062.286.094.602.094.949v3.45h-1.531v-3.168c0-.462-.072-.808-.217-1.036-.145-.228-.398-.342-.765-.342-.417 0-.72.125-.906.375s-.28.66-.28 1.231v2.94h-1.531v-5.609h1.455zM139.173 15.502c-.244 0-.45.056-.614.167-.166.112-.3.257-.404.434-.105.177-.178.373-.222.586-.043.213-.064.424-.064.634 0 .204.021.409.064.62.044.209.114.398.21.568.098.17.229.309.395.418.164.109.366.162.604.162.367 0 .648-.103.846-.31.199-.206.322-.481.373-.829h1.477c-.1.745-.387 1.312-.861 1.703-.476.391-1.082.586-1.823.586-.417 0-.8-.071-1.148-.212-.349-.142-.644-.339-.89-.591-.244-.253-.436-.555-.572-.906-.136-.35-.203-.735-.203-1.155 0-.434.062-.837.188-1.209.125-.373.311-.694.555-.965.245-.271.542-.483.896-.634.352-.151.754-.228 1.207-.228.331 0 .649.043.955.13.305.087.578.219.818.396.242.177.438.397.589.662.15.264.237.577.259.938h-1.5c-.103-.643-.481-.965-1.135-.965zM144.295 18.756c.23.225.562.336.992.336.309 0 .575-.078.798-.232.224-.156.359-.32.41-.494h1.349c-.217.674-.547 1.152-.994 1.443-.445.289-.983.434-1.616.434-.44 0-.834-.071-1.187-.212-.352-.142-.65-.342-.895-.603-.244-.26-.434-.57-.566-.932-.133-.362-.2-.76-.2-1.193 0-.419.069-.81.206-1.172.136-.362.329-.675.582-.938.252-.264.552-.473.9-.624s.734-.228 1.159-.228c.475 0 .888.092 1.239.277.354.183.643.432.869.742.226.311.391.666.49 1.062.102.398.137.814.108 1.249h-4.022c.022.499.147.86.378 1.085zm1.731-2.951c-.184-.202-.462-.303-.837-.303-.244 0-.447.042-.608.125-.162.083-.292.187-.388.309-.098.123-.166.253-.205.391l-.07.368h2.49c-.072-.391-.199-.687-.382-.89zM94.238 23.564v6.313h3.754v1.433h-5.445v-7.746h1.691zM98.94 26.526c.158-.239.358-.431.604-.575.244-.145.519-.247.825-.309.305-.062.611-.094.921-.094.281 0 .563.021.852.061.287.04.551.117.787.233.238.116.432.276.584.483.15.205.227.479.227.818v2.918c0 .253.014.496.042.727.028.231.079.405.151.521h-1.553l-.07-.267-.037-.276c-.245.253-.533.431-.863.531-.331.102-.669.152-1.014.152-.267 0-.515-.033-.744-.098-.23-.066-.432-.166-.604-.305-.174-.137-.309-.311-.404-.521-.098-.209-.146-.457-.146-.747 0-.317.056-.58.168-.786.111-.206.255-.371.432-.494.176-.123.377-.215.604-.275.227-.062.455-.111.684-.146.23-.037.457-.066.68-.087.224-.022.42-.056.594-.098.172-.044.309-.107.41-.19.1-.083.146-.203.139-.363 0-.166-.026-.299-.08-.396-.055-.098-.126-.173-.215-.227-.091-.055-.195-.092-.312-.109l-.384-.027c-.302 0-.539.064-.712.195-.172.131-.273.347-.302.65h-1.531c.02-.36.109-.66.267-.899zm3.026 2.175l-.313.082-.351.053-.366.055-.339.088c-.112.035-.21.084-.292.146s-.148.14-.199.233-.076.213-.076.357c0 .139.025.254.076.348s.119.168.204.223c.087.055.188.092.302.113.115.021.234.032.357.032.301 0 .534-.051.699-.151.166-.102.288-.223.367-.363.078-.141.127-.285.146-.428l.026-.348v-.575c-.064.057-.145.102-.241.135zM106.123 25.701v.781h.032c.193-.325.444-.562.755-.71.309-.148.625-.224.949-.224.409 0 .744.057 1.008.17.263.111.469.267.62.467.149.198.257.439.317.726.062.286.092.603.092.949v3.45h-1.531v-3.168c0-.463-.072-.809-.215-1.036-.145-.228-.4-.342-.767-.342-.417 0-.72.124-.905.375-.188.249-.28.659-.28 1.23v2.94h-1.53v-5.609h1.455zM115.854 31.723c-.061.289-.191.559-.393.807-.202.25-.492.462-.873.635-.383.174-.893.261-1.532.261-.272 0-.552-.034-.835-.103-.284-.068-.543-.176-.777-.32s-.427-.331-.581-.559c-.155-.229-.243-.5-.265-.818h1.521c.071.289.212.488.421.601.207.112.448.169.723.169.431 0 .745-.131.941-.391.199-.26.294-.59.287-.986v-.738h-.021c-.166.297-.4.516-.707.656-.305.141-.627.212-.965.212-.417 0-.776-.075-1.078-.224-.301-.146-.551-.35-.744-.607-.193-.256-.336-.556-.426-.899-.09-.343-.135-.708-.135-1.091 0-.361.053-.71.156-1.047.104-.336.258-.632.459-.889.201-.256.45-.461.75-.613.297-.152.641-.229 1.029-.229.366 0 .688.069.965.207.275.139.508.369.695.694h.021v-.749h1.456v5.25c0 .224-.031.482-.092.771zm-2.097-1.867c.166-.087.302-.202.409-.347.108-.145.189-.31.243-.494s.081-.377.081-.58c0-.232-.021-.449-.065-.656-.042-.207-.114-.389-.216-.548-.1-.159-.232-.286-.397-.38-.167-.094-.376-.141-.626-.141-.216 0-.4.043-.557.13-.153.087-.283.204-.387.353-.104.148-.18.318-.227.51s-.07.393-.07.602c0 .203.02.403.061.602.039.199.106.379.203.537.098.16.226.29.383.391.158.102.356.152.594.152.214-.001.406-.044.571-.131zM120.69 31.311v-.783h-.032c-.194.326-.445.562-.755.706-.31.145-.626.218-.948.218-.411 0-.746-.055-1.009-.164-.263-.107-.469-.262-.62-.46-.15-.198-.258-.441-.317-.727-.062-.286-.093-.602-.093-.949v-3.45h1.531v3.168c0 .463.072.809.216 1.035.144.229.399.342.767.342.416 0 .719-.123.906-.373.187-.25.279-.66.279-1.232v-2.939h1.531v5.609h-1.456zM123.258 26.526c.158-.239.358-.431.604-.575.243-.145.52-.247.824-.309.306-.062.613-.094.922-.094.281 0 .564.021.852.061.287.04.551.117.787.233.238.116.432.276.583.483.151.205.227.479.227.818v2.918c0 .253.014.496.043.727.028.231.079.405.151.521h-1.553l-.07-.267-.038-.276c-.244.253-.532.431-.862.531-.33.102-.668.152-1.014.152-.266 0-.515-.033-.744-.098-.23-.066-.432-.166-.604-.305-.171-.137-.307-.311-.403-.521-.098-.209-.146-.457-.146-.747 0-.317.056-.58.168-.786.111-.206.254-.371.431-.494s.378-.215.604-.275c.227-.062.454-.111.684-.146.23-.037.457-.066.68-.087.223-.022.421-.056.594-.098.172-.044.31-.107.41-.19.1-.083.146-.203.139-.363 0-.166-.026-.299-.08-.396-.053-.098-.125-.173-.215-.227-.09-.055-.195-.092-.312-.109l-.383-.027c-.303 0-.54.064-.713.195-.172.131-.273.347-.303.65h-1.53c.017-.36.109-.66.267-.899zm3.024 2.175l-.313.082-.35.053-.367.055-.34.088c-.111.035-.209.084-.291.146-.084.062-.149.14-.199.233-.051.094-.076.213-.076.357 0 .139.025.254.076.348.05.094.119.168.205.223s.186.092.301.113l.357.032c.301 0 .535-.051.701-.151.164-.102.287-.223.365-.363.079-.141.128-.285.146-.428l.026-.348v-.575c-.064.057-.144.102-.241.135zM134.25 31.723c-.061.289-.191.559-.393.807-.202.25-.492.462-.873.635-.383.174-.893.261-1.533.261-.272 0-.551-.034-.834-.103-.284-.068-.544-.176-.777-.32s-.428-.331-.582-.559c-.154-.229-.242-.5-.264-.818h1.52c.072.289.213.488.421.601s.448.169.723.169c.431 0 .746-.131.943-.391.198-.26.294-.59.286-.986v-.738h-.021c-.166.297-.401.516-.707.656-.305.141-.627.212-.965.212-.417 0-.775-.075-1.078-.224-.303-.146-.55-.35-.744-.607-.193-.256-.336-.556-.426-.899-.09-.343-.135-.708-.135-1.091 0-.361.052-.71.156-1.047.104-.336.258-.632.458-.889.201-.256.45-.461.75-.613.298-.152.642-.229 1.029-.229.366 0 .688.069.966.207.276.139.509.369.695.694h.021v-.749h1.457v5.25c.001.224-.031.482-.093.771zm-2.098-1.867c.166-.087.303-.202.41-.347.108-.145.189-.31.242-.494.055-.185.082-.377.082-.58 0-.232-.021-.449-.064-.656s-.115-.389-.216-.548-.234-.286-.399-.38c-.166-.094-.373-.141-.625-.141-.217 0-.401.043-.556.13s-.284.204-.388.353c-.105.148-.182.318-.227.51-.047.191-.07.393-.07.602 0 .203.02.403.06.602.039.199.106.379.204.537.098.16.225.29.383.391.158.102.355.152.594.152.216-.001.406-.044.57-.131zM136.736 29.965c.23.225.561.336.992.336.309 0 .574-.077.798-.233.222-.155.358-.319.409-.493h1.348c-.215.672-.545 1.154-.991 1.443s-.985.434-1.618.434c-.438 0-.835-.07-1.186-.211-.353-.142-.65-.343-.896-.604-.245-.26-.433-.57-.565-.932-.133-.363-.2-.76-.2-1.193 0-.42.068-.811.206-1.172.135-.361.329-.674.582-.938.25-.265.551-.473.9-.625.349-.152.734-.229 1.158-.229.475 0 .888.094 1.24.277s.642.432.869.743c.227.312.389.665.49 1.063.101.397.137.814.108 1.247h-4.023c.024.501.149.862.379 1.087zm1.731-2.951c-.184-.201-.463-.303-.836-.303-.244 0-.447.041-.609.125-.161.083-.291.186-.389.309-.096.123-.165.253-.204.391l-.07.368h2.491c-.073-.39-.2-.687-.383-.89z"/></g><path stroke="#404040" stroke-width="1.633" stroke-miterlimit="10" fill="none" d="M86.288 1.147v30.333"/><a xmlns="http://www.w3.org/2000/svg" id="anchor" xmlns:xlink="http://www.w3.org/1999/xlink" xlink:href="http://www.bbc.co.uk/gel" target="_top"><rect x="0" y="0" width="148" height="33" fill-opacity="0"/></a></svg>
