<svg id="Layer_1" xmlns="http://www.w3.org/2000/svg" width="126.5" height="34.4" viewBox="0 0 126.5 34.4"><style><![CDATA[
	.st0{fill:#ccc;}
]]></style><path class="st0" d="M24.4 14.6H13.7c-.3 0-.5.2-.5.5v5.2c0 .3.2.5.5.5h4.1v6.5s-.9.3-3.5.3c-3 0-7.3-1.1-7.3-10.4s4.4-10.6 8.6-10.6c3.6 0 5.1.6 6.1.9.3.1.6-.2.6-.5l1.2-5c0-.1 0-.3-.2-.4C23 1.4 20.5 0 14.4 0 7.3 0 0 3 0 17.5s8.3 16.7 15.4 16.7c5.8 0 9.3-2.5 9.3-2.5.1-.1.2-.3.2-.4V15.1c0-.2-.3-.5-.5-.5zM79.2 1.7c0-.3-.2-.5-.5-.5h-6c-.3 0-.5.2-.5.5v11.6h-9.3V1.7c0-.3-.2-.5-.5-.5h-6c-.3 0-.5.2-.5.5V33c0 .3.2.5.5.5h6c.3 0 .5-.2.5-.5V19.7h9.3v13.4c0 .3.2.5.5.5h6c.3 0 .5-.2.5-.5V1.7zM35.7 5.8c0-2.2-1.7-3.9-3.9-3.9-2.1 0-3.9 1.7-3.9 3.9s1.7 3.9 3.9 3.9c2.1 0 3.9-1.7 3.9-3.9zM35.2 26.5V12c0-.3-.2-.5-.5-.5h-6c-.3 0-.5.3-.5.6v20.7c0 .6.4.8.9.8h5.4c.6 0 .7-.3.7-.8v-6.3zM101.9 11.5H96c-.3 0-.5.2-.5.5v15.4s-1.5 1.1-3.7 1.1c-2.1 0-2.7-1-2.7-3.1V12c0-.3-.2-.5-.5-.5h-6c-.3 0-.5.2-.5.5v14.4c0 6.2 3.5 7.8 8.2 7.8 3.9 0 7.1-2.2 7.1-2.2s.2 1.1.2 1.3c.1.1.2.3.4.3h3.8c.3 0 .5-.2.5-.5v-21c.1-.3-.1-.6-.4-.6zM118.1 10.8c-3.4 0-5.7 1.5-5.7 1.5V1.7c0-.3-.2-.5-.5-.5h-6c-.3 0-.5.2-.5.5V33c0 .3.2.5.5.5h4.2c.2 0 .3-.1.4-.3.1-.2.3-1.4.3-1.4s2.5 2.3 7.1 2.3c5.5 0 8.6-2.8 8.6-12.4 0-9.6-5-10.9-8.4-10.9zm-2.3 17.7c-2.1-.1-3.5-1-3.5-1v-9.9s1.4-.8 3.1-1c2.1-.2 4.2.5 4.2 5.6 0 5.3-.9 6.4-3.8 6.3zM52.4 11.5h-4.5V5.6c0-.2-.1-.3-.4-.3h-6.1c-.2 0-.4.1-.4.3v6.1s-3.1.7-3.3.8c-.2.1-.4.3-.4.5v3.9c0 .3.2.5.5.5h3.1v9.3c0 6.9 4.8 7.6 8.1 7.6 1.5 0 3.3-.5 3.6-.6.2-.1.3-.2.3-.4v-4.2c0-.3-.2-.5-.5-.5s-.9.1-1.6.1c-2.2 0-3-1-3-2.4v-8.8h4.5c.3 0 .5-.2.5-.5v-5c.1-.3-.1-.5-.4-.5z"/>
<a xmlns="http://www.w3.org/2000/svg" id="anchor" xmlns:xlink="http://www.w3.org/1999/xlink" xlink:href="http://www.github.com/bbc" target="_top">
		<rect x="0" y="0" width="148" height="33" fill-opacity="0"/>
	</a>
</svg>
